# xmcd CD database file
#
# Track frame offsets:
#	150
#	15940
#	35981
#	50650
#	62725
#	76536
#	99743
#	116263
#	132948
#	152897
#	164451
#	172905
#	185276
#
# Disc length: 2651 seconds
#
# Revision: 0
# Processed by: cddbd v1.5.2PL0 Copyright (c) Steve Scherf et al.
# Submitted via: CDex 1.51
#
DISCID=9e0a590d
DTITLE=Ray Charles - Ningún Título
DYEAR=2000
DGENRE=Jazz
TTITLE0=From The Heart
TTITLE1=I ´ve Got News For Yuo
TTITLE2=Moanin
TTITLE3=Let´s - Go
TTITLE4=One Mint Juler
TTITLE5=Birth Of The Blues
TTITLE6=I ´m Gonna Move To The Outsk
TTITLE7=Stompint Room Only 
TTITLE8=Mister C
TTITLE9=Strike Up The Band
TTITLE10=Alabamy Bound
TTITLE11=Basin Street Blues
TTITLE12=Pista De Audio 13
EXTD=YEAR: 2000
EXTT0=
EXTT1=
EXTT2=
EXTT3=
EXTT4=
EXTT5=
EXTT6=
EXTT7=
EXTT8=
EXTT9=
EXTT10=
EXTT11=
EXTT12=
PLAYORDER=
